<?xml version="1.0" encoding="UTF-8" standalone="no"?>
<svg xmlns="http://www.w3.org/2000/svg" width="180px" height="65px" viewBox="0 0 180 65" version="1.1" id="nordLead">
  <title>Nord Lead 2x</title>
  <description>Interactive icon by @dpskvn</description>
  <defs>
    <filter x="-50%" y="-50%" width="200%" height="200%" filterUnits="objectBoundingBox" id="genericShadow">
      <feOffset dx="0" dy="1" in="SourceAlpha" result="shadowOffsetOuter1"/>
      <feGaussianBlur stdDeviation="0" in="shadowOffsetOuter1" result="shadowBlurOuter1"/>
      <feColorMatrix values="0 0 0 0 0   0 0 0 0 0   0 0 0 0 0  0 0 0 0.35 0" in="shadowBlurOuter1" type="matrix" result="shadowMatrixOuter1"/>
      <feMerge>
        <feMergeNode in="shadowMatrixOuter1"/>
        <feMergeNode in="SourceGraphic"/>
      </feMerge>
    </filter>
    <filter x="-50%" y="-50%" width="200%" height="200%" filterUnits="objectBoundingBox" id="whiteKeyShadow">
      <feOffset dx="0" dy="1" in="SourceAlpha" result="shadowOffsetOuter1"/>
      <feGaussianBlur stdDeviation="0" in="shadowOffsetOuter1" result="shadowBlurOuter1"/>
      <feColorMatrix values="0 0 0 0 0   0 0 0 0 0   0 0 0 0 0  0 0 0 0.35 0" in="shadowBlurOuter1" type="matrix" result="shadowMatrixOuter1"/>
      <feMerge>
        <feMergeNode in="shadowMatrixOuter1"/>
        <feMergeNode in="SourceGraphic"/>
      </feMerge>
    </filter>
    <filter x="-50%" y="-50%" width="200%" height="200%" filterUnits="objectBoundingBox" id="blackKeyShadow">
      <feOffset dx="0" dy="1" in="SourceAlpha" result="shadowOffsetOuter1"/>
      <feGaussianBlur stdDeviation="0" in="shadowOffsetOuter1" result="shadowBlurOuter1"/>
      <feColorMatrix values="0 0 0 0 0.197119473   0 0 0 0 0.197119473   0 0 0 0 0.197119473  0 0 0 0.7 0" in="shadowBlurOuter1" type="matrix" result="shadowMatrixOuter1"/>
      <feMerge>
        <feMergeNode in="shadowMatrixOuter1"/>
        <feMergeNode in="SourceGraphic"/>
      </feMerge>
    </filter> d
    <linearGradient x1="50%" y1="0%" x2="50%" y2="98.9317602%" id="modWheelGradient">
      <stop stop-color="#9A9A9A" offset="0%"/>
      <stop stop-color="#C3C3C3" offset="50%"/>
      <stop stop-color="#9A9A9A" offset="100%"/>
    </linearGradient>
    <linearGradient x1="3.061617e-15%" y1="50%" x2="100%" y2="50%" id="pitchGradient">
      <stop stop-color="#AC6A40" offset="0%"/>
      <stop stop-color="#945C39" offset="50%"/>
      <stop stop-color="#AC6A40" offset="100%"/>
    </linearGradient>
  </defs>
  <rect id="Synth-Front" stroke="#A33E49" fill="#8B2530" filter="url(#genericShadow)" x="0" y="58" width="180" height="5"/>
  <rect id="Synth-Body" stroke="#CC5663" fill="#CD3949" x="0" y="0" width="180" height="59"/>
  <rect id="Keys-BG" fill="#454545" x="27" y="30" width="150" height="28"/>
  <g id="Keys" transform="translate(28.000000, 23.000000)">
    <g id="White-Keys" transform="translate(0.000000, 5.000000)">
      <rect id="c" fill="#FAFAFA" filter="url(#whiteKeyShadow)" x="0" y="0" width="8" height="29" rx="2"/>
      <rect id="d" fill="#FAFAFA" filter="url(#whiteKeyShadow)" x="10" y="0" width="8" height="29" rx="2"/>
      <rect id="e" fill="#FAFAFA" filter="url(#whiteKeyShadow)" x="20" y="0" width="8" height="29" rx="2"/>
      <rect id="f" fill="#FAFAFA" filter="url(#whiteKeyShadow)" x="30" y="0" width="8" height="29" rx="2"/>
      <rect id="g" fill="#FAFAFA" filter="url(#whiteKeyShadow)" x="40" y="0" width="8" height="29" rx="2"/>
      <rect id="a" fill="#FAFAFA" filter="url(#whiteKeyShadow)" x="50" y="0" width="8" height="29" rx="2"/>
      <rect id="b" fill="#FAFAFA" filter="url(#whiteKeyShadow)" x="60" y="0" width="8" height="29" rx="2"/>
      <rect id="c2" fill="#FAFAFA" filter="url(#whiteKeyShadow)" x="70" y="0" width="8" height="29" rx="2"/>
      <rect id="d2" fill="#FAFAFA" filter="url(#whiteKeyShadow)" x="80" y="0" width="8" height="29" rx="2"/>
      <rect id="e2" fill="#FAFAFA" filter="url(#whiteKeyShadow)" x="90" y="0" width="8" height="29" rx="2"/>
      <rect id="f2" fill="#FAFAFA" filter="url(#whiteKeyShadow)" x="100" y="0" width="8" height="29" rx="2"/>
      <rect id="g2" fill="#FAFAFA" filter="url(#whiteKeyShadow)" x="110" y="0" width="8" height="29" rx="2"/>
      <rect id="a2" fill="#FAFAFA" filter="url(#whiteKeyShadow)" x="120" y="0" width="8" height="29" rx="2"/>
      <rect id="b2" fill="#FAFAFA" filter="url(#whiteKeyShadow)" x="130" y="0" width="8" height="29" rx="2"/>
      <rect id="c3" fill="#FAFAFA" filter="url(#whiteKeyShadow)" x="140" y="0" width="8" height="29" rx="2"/>
    </g>
    <g id="Black-Keys" transform="translate(6.000000, 0.000000)">
      <rect id="cs" fill="#565656" filter="url(#blackKeyShadow)" x="0" y="0" width="6" height="21" rx="2"/>
      <rect id="ds" fill="#565656" filter="url(#blackKeyShadow)" x="10" y="0" width="6" height="21" rx="2"/>
      <rect id="fs" fill="#565656" filter="url(#blackKeyShadow)" x="30" y="0" width="6" height="21" rx="2"/>
      <rect id="gs" fill="#565656" filter="url(#blackKeyShadow)" x="40" y="0" width="6" height="21" rx="2"/>
      <rect id="as" fill="#565656" filter="url(#blackKeyShadow)" x="50" y="0" width="6" height="21" rx="2"/>
      <rect id="cs2" fill="#565656" filter="url(#blackKeyShadow)" x="70" y="0" width="6" height="21" rx="2"/>
      <rect id="ds2" fill="#565656" filter="url(#blackKeyShadow)" x="80" y="0" width="6" height="21" rx="2"/>
      <rect id="fs2" fill="#565656" filter="url(#blackKeyShadow)" x="100" y="0" width="6" height="21" rx="2"/>
      <rect id="gs2" fill="#565656" filter="url(#blackKeyShadow)" x="110" y="0" width="6" height="21" rx="2"/>
      <rect id="as2" fill="#565656" filter="url(#blackKeyShadow)" x="120" y="0" width="6" height="21" rx="2"/>
    </g>
  </g>
  <rect id="Cover" fill="#CD3949" filter="url(#genericShadow)" x="27" y="4" width="150" height="26"/>
  <path d="M4,5 L4,25 L71,25 L71,5 L4,5 Z M4,25 L4,41.7675781 L24,51 L24,25 L4,25 Z" id="Highlight" fill="#2D283F"/>
  <text id="logo" font-family="Helvetica Neue" font-size="6" font-weight="bold" letter-spacing="0.300000012">
    <tspan x="136" y="24" fill="#FFFFFF">nord lead</tspan>
    <tspan x="167.876" y="24" fill="#707070"> </tspan>
    <tspan x="169.424" y="24" fill="#2D283F">2x</tspan>
  </text>
  <rect id="Gray-Highlight-2" fill="#8F898D" x="24" y="7" width="17" height="16" rx="1"/>
  <rect id="Gray-Highlight-1" fill="#8F898D" x="9" y="7" width="13" height="13" rx="1"/>
  <circle id="Pot-1" fill="#4D4D4D" cx="11.5" cy="9.5" r="1.5"/>
  <circle id="Pot-2" fill="#4D4D4D" cx="6.5" cy="9.5" r="1.5"/>
  <circle id="Pot-3" fill="#4D4D4D" cx="19.5" cy="9.5" r="1.5"/>
  <circle id="Pot-4" fill="#4D4D4D" cx="32.5" cy="10.5" r="1.5"/>
  <rect id="Gray-Highlight-3" fill="#8F898D" x="43" y="7" width="17" height="5" rx="1"/>
  <circle id="Pot-5" fill="#4D4D4D" cx="45.5" cy="9.5" r="1.5"/>
  <rect id="Gray-Highlight-4" fill="#8F898D" x="43" y="13" width="17" height="10" rx="1"/>
  <circle id="Pot-6" fill="#4D4D4D" cx="45.5" cy="15.5" r="1.5"/>
  <circle id="Pot-7" fill="#4D4D4D" cx="45.5" cy="20.5" r="1.5"/>
  <circle id="Pot-8" fill="#4D4D4D" cx="49.5" cy="20.5" r="1.5"/>
  <circle id="Pot-9" fill="#4D4D4D" cx="49.5" cy="15.5" r="1.5"/>
  <circle id="Pot-10" fill="#4D4D4D" cx="53.5" cy="15.5" r="1.5"/>
  <circle id="Pot-11" fill="#4D4D4D" cx="49.5" cy="9.5" r="1.5"/>
  <circle id="Pot-12" fill="#4D4D4D" cx="53.5" cy="9.5" r="1.5"/>
  <circle id="Pot-13" fill="#4D4D4D" cx="57.5" cy="9.5" r="1.5"/>
  <circle id="Pot-14" fill="#4D4D4D" cx="26.5" cy="14.5" r="1.5"/>
  <circle id="Pot-15" fill="#4D4D4D" cx="26.5" cy="18.5" r="1.5"/>
  <circle id="Pot-16" fill="#4D4D4D" cx="38.5" cy="18.5" r="1.5"/>
  <circle id="Pot-17" fill="#4D4D4D" cx="32.5" cy="14.5" r="1.5"/>
  <circle id="Pot-18" fill="#4D4D4D" cx="11.5" cy="13.5" r="1.5"/>
  <circle id="Pot-19" fill="#4D4D4D" cx="19.5" cy="13.5" r="1.5"/>
  <circle id="Pot-20" fill="#4D4D4D" cx="11.5" cy="17.5" r="1.5"/>
  <circle id="Pot-21" fill="#4D4D4D" cx="19.5" cy="17.5" r="1.5"/>
  <rect id="Mod-Wheel" fill="url(#modWheelGradient)" x="18" y="34" width="2" height="10" rx="8"/>
  <g id="Writing" transform="translate(62.000000, 7.000000)" fill="#D8D8D8">
    <rect id="Rectangle-37" x="0" y="0" width="7" height="1"/>
    <rect id="Rectangle-38" x="0" y="2" width="7" height="1"/>
    <rect id="Rectangle-39" x="0" y="4" width="7" height="1"/>
    <rect id="Rectangle-40" x="0" y="6" width="7" height="1"/>
    <rect id="Rectangle-41" x="0" y="8" width="7" height="1"/>
    <rect id="Rectangle-42" x="0" y="10" width="7" height="1"/>
    <rect id="Rectangle-43" x="0" y="12" width="7" height="1"/>
    <rect id="Rectangle-44" x="0" y="14" width="7" height="1"/>
  </g>
  <rect id="light" fill="#aaaaaa" x="13" y="22" width="3" height="3"/>
  <rect id="Pitch-BG" fill="#4D4D4D" x="11" y="27" width="7" height="3"/>
  <rect id="Pitch" fill="url(#pitchGradient)" x="13" y="27" width="3" height="3"/>
  <rect id="Button-1" fill="#4D4D4D" x="14" y="9" width="3" height="2"/>
  <rect id="Button-2" fill="#4D4D4D" x="37" y="10" width="3" height="2"/>
  <rect id="Button-3" fill="#4D4D4D" x="56" y="15" width="3" height="2"/>
  <rect id="Button-4" fill="#4D4D4D" x="52" y="20" width="3" height="2"/>
  <rect id="Button-5" fill="#4D4D4D" x="56" y="20" width="3" height="2"/>
  <rect id="Button-6" fill="#4D4D4D" x="37" y="14" width="3" height="2"/>
  <rect id="Button-7" fill="#4D4D4D" x="31" y="18" width="3" height="2"/>
  <rect id="Button-8" fill="#4D4D4D" x="25" y="10" width="3" height="2"/>
  <rect id="Button-9" fill="#4D4D4D" x="14" y="14" width="3" height="2"/>
  <rect id="Button-10" fill="#4D4D4D" x="5" y="13" width="3" height="2"/>
  <rect id="Button-11" fill="#4D4D4D" x="5" y="17" width="3" height="2"/>
  <rect id="Button-12" fill="#4D4D4D" x="20" y="28" width="3" height="2"/>
  <rect id="Button-13" fill="#4D4D4D" x="6" y="28" width="3" height="2"/>
  <script type="text/ecmascript"><![CDATA[
    var context;
    if(window.AudioContext) {
      context = new AudioContext();
    } else {
      context = new webkitAudioContext();
    }
    var sounds = {};
    
    function Sound(frequency) {
      this.frequency = frequency;
      this.oscillators = [];
      this.amps = [];
    };
    
    Sound.prototype.start = function(context) {
      var oscillator = context.createOscillator();
      oscillator.type = oscillator.SAWTOOTH;
      oscillator.frequency.value = this.frequency;
      var amplifier = context.createGain();
      amplifier.gain.value = 0.3;
      var delay = context.createDelay();
      var feedback = context.createGain();
      var wet = context.createGain();
      delay.delayTime.value = 0.15;
      amplifier.connect(delay);
      feedback.gain.value = 0.25;
      wet.gain.value = 0.25;
      delay.connect(feedback);
      delay.connect(wet);
      delay.connect(context.destination);
      feedback.connect(delay);
      wet.connect(context.destination);
      var filter = context.createBiquadFilter();
      oscillator.connect(filter);
      filter.type = filter.PEAKING;
      filter.Q.value = 2;
      filter.gain.value = 10;
      filter.frequency = this.frequency;
      filter.connect(amplifier);
      amplifier.connect(context.destination);
      amplifier.gain.setValueAtTime(0, context.currentTime);
      amplifier.gain.linearRampToValueAtTime(1, context.currentTime + 0.1);
      oscillator.start(0);
      this.oscillators.push(oscillator);
      this.amps.push(amplifier);
      this.amps.push(feedback);
      this.amps.push(wet);
    };
    
    Sound.prototype.stop = function() {
      this.amps.forEach(function(amp) {
        amp.gain.linearRampToValueAtTime(0, context.currentTime + 0.4);
      });
      setTimeout(function() {
        this.oscillators.forEach(function(oscillator) {
          oscillator.stop(0);
        });
      }.bind(this), 450);
    };
    
    var keys = new Array(256);
    
    keys[65] = {
      key: "c",
      frequency: 261.63
    };
    keys[87] = {
      key: "cs",
      frequency: 277.18
    };
    keys[83] = {
      key: "d",
      frequency: 293.66
    };
    keys[69] = {
      key: "ds",
      frequency: 311.13
    };
    keys[68] = {
      key: "e",
      frequency: 329.63
    };
    keys[70] = {
      key: "f",
      frequency: 349.23
    };
    keys[84] = {
      key: "fs",
      frequency: 369.99
    };
    keys[71] = {
      key: "g",
      frequency: 392.00
    };
    keys[89] = {
      key: "gs",
      frequency: 415.30
    };
    keys[72] = {
      key: "a",
      frequency: 440.00
    };
    keys[85] = {
      key: "as",
      frequency: 466.16
    };
    keys[74] = {
      key: "b",
      frequency: 493.88
    };
    keys[75] = {
      key: "c2",
      frequency: 523.25
    };
    keys[79] = {
      key: "cs2",
      frequency: 554.37
    };
    keys[76] = {
      key: "d2",
      frequency: 587.33
    };
    keys[80] = {
      key: "ds2",
      frequency: 622.25
    };
    keys[186] = {
      key: "e2",
      frequency: 659.25
    };
    keys[222] = {
      key: "f2",
      frequency: 698.46
    };
    keys[221] = {
      key: "fs2",
      frequency: 739.99
    };
    keys[220] = {
      key: "g2",
      frequency: 783.99
    };
    
    function keyDownHandler(e) {
      e.preventDefault();
      key = keys[e.keyCode];
      var el;
      if (key && !key.pressed) {
        key.pressed = true;
        el = document.getElementById(key.key);
        if (key.key[1] === "s") {
          el.style.fill = "#2B2B2B";
          el.removeAttribute("filter");
          el.setAttribute("transform", "translate(0.000000, 1.000000)");
        } else {
          el.style.fill = "#cfcfcf";
          el.removeAttribute("filter");
          el.setAttribute("transform", "translate(0.000000, 1.000000)");
        }
        var voice = new Sound(key.frequency);
        sounds[key.key] = voice;
        voice.start(context);
      }
    }
    
    function keyUpHandler(e) {
      e.preventDefault();
      key = keys[e.keyCode];
      var el;
      if (key) {
        key.pressed = false;
        el = document.getElementById(key.key);
        if (key.key[1] === "s") {
          el.style.fill = "#565656";
          el.setAttribute("filter", "url(#blackKeyShadow)");
          el.setAttribute("transform", "translate(0.000000, 0.000000)");
        } else {
          el.style.fill = "#FAFAFA";
          el.setAttribute("filter", "url(#whiteKeyShadow)");
          el.setAttribute("transform", "translate(0.000000, 0.000000)");
        }
        sounds[key.key].stop();
        delete sounds[key.key];
      }
    }
    
    document.addEventListener('keydown', keyDownHandler);
    document.addEventListener('keyup', keyUpHandler);
    
    document.getElementById("nordLead").addEventListener('focusin', function() {
      var light = document.getElementById("light");
      light.style.fill = "#75BB3F";
    });
    document.getElementById("nordLead").addEventListener('focusout', function() {
      var light = document.getElementById("light");
      light.style.fill = "#AAAAAA";
    });
  ]]></script>
</svg>
